<svg width="184" height="48" viewBox="0 0 184 48" fill="none" xmlns="http://www.w3.org/2000/svg">
<path d="M0.84375 31.9531C0.929688 31.8281 1.02734 31.6445 1.13672 31.4023C1.24609 31.1523 1.33203 30.8398 1.39453 30.4648C1.48047 29.918 1.57422 29.3047 1.67578 28.625C1.78516 27.9375 1.89453 27.2188 2.00391 26.4688C2.12109 25.7188 2.23438 24.9531 2.34375 24.1719C2.46094 23.3828 2.57031 22.6094 2.67188 21.8516C2.78125 21.0859 2.88281 20.3516 2.97656 19.6484C3.07812 18.9375 3.16797 18.2891 3.24609 17.7031C3.32422 17.1172 3.38672 16.6094 3.43359 16.1797C3.48828 15.7422 3.52734 15.4141 3.55078 15.1953H5.03906L12.4102 28.9766L19.7227 15.1953H20.8359L22.7578 29.1172C22.8125 29.5547 22.8711 29.9297 22.9336 30.2422C22.9961 30.5547 23.0586 30.8242 23.1211 31.0508C23.1836 31.2695 23.2422 31.4531 23.2969 31.6016C23.3594 31.7422 23.418 31.8594 23.4727 31.9531V32H20.5195V31.9531C20.5586 31.8672 20.5938 31.7266 20.625 31.5312C20.6641 31.3359 20.6836 31.1016 20.6836 30.8281C20.6836 30.7266 20.6797 30.625 20.6719 30.5234C20.6641 30.4141 20.6523 30.2969 20.6367 30.1719L19.1484 18.9453L12.2344 31.9531L11.4258 31.8594L4.46484 18.8281C4.19141 20.6797 3.95312 22.3906 3.75 23.9609C3.66406 24.6328 3.57812 25.3047 3.49219 25.9766C3.40625 26.6406 3.32812 27.2617 3.25781 27.8398C3.19531 28.418 3.14453 28.9297 3.10547 29.375C3.06641 29.8125 3.04688 30.1367 3.04688 30.3477C3.04688 30.6133 3.05469 30.8477 3.07031 31.0508C3.08594 31.2539 3.10156 31.4258 3.11719 31.5664C3.14062 31.7305 3.16406 31.875 3.1875 32H0.84375V31.9531ZM26.3203 24.582C26.3203 23.918 26.3086 23.3398 26.2852 22.8477C26.2695 22.3477 26.2461 21.918 26.2148 21.5586C26.1914 21.1992 26.1562 20.8984 26.1094 20.6562C26.0703 20.4141 26.0273 20.2109 25.9805 20.0469V20H28.6875V20.0469C28.6406 20.2109 28.5977 20.4141 28.5586 20.6562C28.5195 20.8984 28.4844 21.1992 28.4531 21.5586C28.4219 21.918 28.3984 22.3477 28.3828 22.8477C28.3672 23.3398 28.3594 23.918 28.3594 24.582V27.418C28.3594 28.082 28.3672 28.6641 28.3828 29.1641C28.3984 29.6562 28.4219 30.082 28.4531 30.4414C28.4844 30.8008 28.5195 31.1016 28.5586 31.3438C28.5977 31.5859 28.6406 31.7891 28.6875 31.9531V32H25.9805V31.9531C26.0273 31.7891 26.0703 31.5859 26.1094 31.3438C26.1562 31.1016 26.1914 30.8008 26.2148 30.4414C26.2461 30.082 26.2695 29.6562 26.2852 29.1641C26.3086 28.6641 26.3203 28.082 26.3203 27.418V24.582ZM26.0742 16.4492C26.0742 16.2773 26.1055 16.1172 26.168 15.9688C26.2383 15.8125 26.3281 15.6797 26.4375 15.5703C26.5469 15.4531 26.6758 15.3633 26.8242 15.3008C26.9805 15.2305 27.1484 15.1953 27.3281 15.1953C27.5078 15.1953 27.6719 15.2305 27.8203 15.3008C27.9766 15.3633 28.1094 15.4531 28.2188 15.5703C28.3359 15.6797 28.4258 15.8125 28.4883 15.9688C28.5586 16.1172 28.5938 16.2773 28.5938 16.4492C28.5938 16.8086 28.4727 17.1094 28.2305 17.3516C27.9883 17.5938 27.6875 17.7148 27.3281 17.7148C27.1484 17.7148 26.9805 17.6836 26.8242 17.6211C26.6758 17.5508 26.5469 17.4609 26.4375 17.3516C26.3281 17.2344 26.2383 17.1016 26.168 16.9531C26.1055 16.7969 26.0742 16.6289 26.0742 16.4492ZM37.3359 22.3555L37.1719 22.3789C37.1172 22.1992 37.0273 22.0078 36.9023 21.8047C36.7852 21.6016 36.6289 21.4141 36.4336 21.2422C36.2461 21.0703 36.0156 20.9297 35.7422 20.8203C35.4766 20.7031 35.168 20.6445 34.8164 20.6445C34.5742 20.6445 34.3438 20.6797 34.125 20.75C33.9141 20.8203 33.7266 20.9258 33.5625 21.0664C33.4062 21.1992 33.2812 21.3672 33.1875 21.5703C33.0938 21.7734 33.0469 22.0117 33.0469 22.2852C33.0469 22.668 33.1641 23.0352 33.3984 23.3867C33.6406 23.7305 33.9414 24.0742 34.3008 24.418C34.6602 24.7539 35.0469 25.0938 35.4609 25.4375C35.8828 25.7812 36.2734 26.1406 36.6328 26.5156C36.9922 26.8906 37.2891 27.293 37.5234 27.7227C37.7656 28.1445 37.8867 28.6016 37.8867 29.0938C37.8867 29.4922 37.8164 29.8828 37.6758 30.2656C37.5352 30.6406 37.3164 30.9766 37.0195 31.2734C36.7305 31.5703 36.3555 31.8125 35.8945 32C35.4414 32.1797 34.8984 32.2695 34.2656 32.2695C33.8906 32.2695 33.5391 32.2344 33.2109 32.1641C32.8906 32.0938 32.5938 32.0078 32.3203 31.9062C32.0547 31.7969 31.8125 31.6797 31.5938 31.5547C31.3828 31.4219 31.1953 31.2969 31.0312 31.1797L31.1484 28.9531H31.3359C31.4141 29.3203 31.5312 29.6562 31.6875 29.9609C31.8438 30.2656 32.0352 30.5273 32.2617 30.7461C32.4961 30.957 32.7617 31.125 33.0586 31.25C33.3555 31.3672 33.6797 31.4258 34.0312 31.4258C34.6094 31.4258 35.0664 31.2656 35.4023 30.9453C35.7461 30.625 35.918 30.207 35.918 29.6914C35.918 29.2773 35.8008 28.8984 35.5664 28.5547C35.3398 28.2031 35.0508 27.8672 34.6992 27.5469C34.3477 27.2266 33.9688 26.9062 33.5625 26.5859C33.1641 26.2656 32.7891 25.9258 32.4375 25.5664C32.0859 25.1992 31.793 24.8008 31.5586 24.3711C31.332 23.9336 31.2188 23.4375 31.2188 22.8828C31.2188 22.4297 31.3008 22.0156 31.4648 21.6406C31.6367 21.2578 31.8711 20.9336 32.168 20.668C32.4727 20.3945 32.832 20.1836 33.2461 20.0352C33.6602 19.8867 34.1133 19.8125 34.6055 19.8125C35.2539 19.8125 35.793 19.8828 36.2227 20.0234C36.6602 20.1562 36.9922 20.2852 37.2188 20.4102L37.3359 22.3555ZM45.8438 22.3555L45.6797 22.3789C45.625 22.1992 45.5352 22.0078 45.4102 21.8047C45.293 21.6016 45.1367 21.4141 44.9414 21.2422C44.7539 21.0703 44.5234 20.9297 44.25 20.8203C43.9844 20.7031 43.6758 20.6445 43.3242 20.6445C43.082 20.6445 42.8516 20.6797 42.6328 20.75C42.4219 20.8203 42.2344 20.9258 42.0703 21.0664C41.9141 21.1992 41.7891 21.3672 41.6953 21.5703C41.6016 21.7734 41.5547 22.0117 41.5547 22.2852C41.5547 22.668 41.6719 23.0352 41.9062 23.3867C42.1484 23.7305 42.4492 24.0742 42.8086 24.418C43.168 24.7539 43.5547 25.0938 43.9688 25.4375C44.3906 25.7812 44.7812 26.1406 45.1406 26.5156C45.5 26.8906 45.7969 27.293 46.0312 27.7227C46.2734 28.1445 46.3945 28.6016 46.3945 29.0938C46.3945 29.4922 46.3242 29.8828 46.1836 30.2656C46.043 30.6406 45.8242 30.9766 45.5273 31.2734C45.2383 31.5703 44.8633 31.8125 44.4023 32C43.9492 32.1797 43.4062 32.2695 42.7734 32.2695C42.3984 32.2695 42.0469 32.2344 41.7188 32.1641C41.3984 32.0938 41.1016 32.0078 40.8281 31.9062C40.5625 31.7969 40.3203 31.6797 40.1016 31.5547C39.8906 31.4219 39.7031 31.2969 39.5391 31.1797L39.6562 28.9531H39.8438C39.9219 29.3203 40.0391 29.6562 40.1953 29.9609C40.3516 30.2656 40.543 30.5273 40.7695 30.7461C41.0039 30.957 41.2695 31.125 41.5664 31.25C41.8633 31.3672 42.1875 31.4258 42.5391 31.4258C43.1172 31.4258 43.5742 31.2656 43.9102 30.9453C44.2539 30.625 44.4258 30.207 44.4258 29.6914C44.4258 29.2773 44.3086 28.8984 44.0742 28.5547C43.8477 28.2031 43.5586 27.8672 43.207 27.5469C42.8555 27.2266 42.4766 26.9062 42.0703 26.5859C41.6719 26.2656 41.2969 25.9258 40.9453 25.5664C40.5938 25.1992 40.3008 24.8008 40.0664 24.3711C39.8398 23.9336 39.7266 23.4375 39.7266 22.8828C39.7266 22.4297 39.8086 22.0156 39.9727 21.6406C40.1445 21.2578 40.3789 20.9336 40.6758 20.668C40.9805 20.3945 41.3398 20.1836 41.7539 20.0352C42.168 19.8867 42.6211 19.8125 43.1133 19.8125C43.7617 19.8125 44.3008 19.8828 44.7305 20.0234C45.168 20.1562 45.5 20.2852 45.7266 20.4102L45.8438 22.3555ZM48.0703 25.9766C48.0703 25.0938 48.2344 24.2773 48.5625 23.5273C48.8906 22.7695 49.3398 22.1133 49.9102 21.5586C50.4883 21.0039 51.168 20.5703 51.9492 20.2578C52.7305 19.9453 53.5703 19.7891 54.4688 19.7891C55.3516 19.7891 56.1797 19.9375 56.9531 20.2344C57.7344 20.5234 58.4141 20.9375 58.9922 21.4766C59.5703 22.0156 60.0234 22.6719 60.3516 23.4453C60.6875 24.2188 60.8555 25.0859 60.8555 26.0469C60.8555 26.8516 60.7148 27.625 60.4336 28.3672C60.1523 29.1094 59.7383 29.7656 59.1914 30.3359C58.6445 30.9062 57.9727 31.3633 57.1758 31.707C56.3867 32.043 55.4766 32.2109 54.4453 32.2109C53.5703 32.2109 52.7461 32.0664 51.9727 31.7773C51.1992 31.4883 50.5234 31.0742 49.9453 30.5352C49.3672 29.9961 48.9102 29.3438 48.5742 28.5781C48.2383 27.8047 48.0703 26.9375 48.0703 25.9766ZM54.7148 31.3555C55.2695 31.3555 55.7773 31.2461 56.2383 31.0273C56.707 30.8086 57.1094 30.4922 57.4453 30.0781C57.7812 29.6641 58.043 29.1602 58.2305 28.5664C58.418 27.9727 58.5117 27.3008 58.5117 26.5508C58.5117 25.707 58.4219 24.9258 58.2422 24.207C58.0625 23.4805 57.793 22.8555 57.4336 22.332C57.082 21.8008 56.6367 21.3867 56.0977 21.0898C55.5586 20.793 54.9297 20.6445 54.2109 20.6445C53.6562 20.6445 53.1484 20.7539 52.6875 20.9727C52.2266 21.1836 51.8242 21.4922 51.4805 21.8984C51.1445 22.3047 50.8828 22.8047 50.6953 23.3984C50.5078 23.9844 50.4141 24.6523 50.4141 25.4023C50.4141 26.2461 50.5039 27.0312 50.6836 27.7578C50.8711 28.4844 51.1445 29.1172 51.5039 29.6562C51.8633 30.1875 52.3086 30.6055 52.8398 30.9102C53.3789 31.207 54.0039 31.3555 54.7148 31.3555ZM65.4609 27.8984C65.4609 28.9297 65.6641 29.6875 66.0703 30.1719C66.4844 30.6562 67.0391 30.8984 67.7344 30.8984C67.9844 30.8984 68.2656 30.8477 68.5781 30.7461C68.8906 30.6367 69.2109 30.4961 69.5391 30.3242C69.875 30.1445 70.207 29.9375 70.5352 29.7031C70.8711 29.4688 71.1797 29.2188 71.4609 28.9531C71.4766 28.7266 71.4844 28.4883 71.4844 28.2383C71.4844 27.9805 71.4844 27.707 71.4844 27.418V24.582C71.4844 23.918 71.4727 23.3398 71.4492 22.8477C71.4336 22.3477 71.4102 21.918 71.3789 21.5586C71.3555 21.1992 71.3203 20.8984 71.2734 20.6562C71.2344 20.4141 71.1914 20.2109 71.1445 20.0469V20H73.8516V20.0469C73.8047 20.2109 73.7617 20.4141 73.7227 20.6562C73.6836 20.8984 73.6484 21.1992 73.6172 21.5586C73.5859 21.918 73.5625 22.3477 73.5469 22.8477C73.5312 23.3398 73.5234 23.918 73.5234 24.582V27.418C73.5234 28.082 73.5312 28.6641 73.5469 29.1641C73.5625 29.6562 73.5859 30.082 73.6172 30.4414C73.6484 30.8008 73.6836 31.1016 73.7227 31.3438C73.7617 31.5859 73.8047 31.7891 73.8516 31.9531V32H71.1445V31.9531C71.1914 31.7578 71.2383 31.5078 71.2852 31.2031C71.3398 30.8984 71.3789 30.5 71.4023 30.0078C71.082 30.2812 70.7344 30.5508 70.3594 30.8164C69.9922 31.082 69.6055 31.3203 69.1992 31.5312C68.8008 31.7422 68.3945 31.9102 67.9805 32.0352C67.5742 32.168 67.1719 32.2344 66.7734 32.2344C66.1641 32.2344 65.6445 32.1289 65.2148 31.918C64.793 31.707 64.4453 31.4297 64.1719 31.0859C63.9062 30.7422 63.7109 30.3516 63.5859 29.9141C63.4688 29.4766 63.4102 29.0273 63.4102 28.5664V24.582C63.4102 23.918 63.4023 23.3398 63.3867 22.8477C63.3711 22.3477 63.3477 21.918 63.3164 21.5586C63.2852 21.1992 63.25 20.8984 63.2109 20.6562C63.1719 20.4141 63.1289 20.2109 63.082 20.0469V20H65.7891V20.0469C65.7422 20.2109 65.6992 20.4141 65.6602 20.6562C65.6211 20.8984 65.5859 21.1992 65.5547 21.5586C65.5234 21.918 65.5 22.3477 65.4844 22.8477C65.4688 23.3398 65.4609 23.918 65.4609 24.582V27.8984ZM77.1328 24.582C77.1328 23.918 77.1211 23.3398 77.0977 22.8477C77.082 22.3477 77.0586 21.918 77.0273 21.5586C77.0039 21.1992 76.9688 20.8984 76.9219 20.6562C76.8828 20.4141 76.8398 20.2109 76.793 20.0469V20H79.5V20.0469C79.4375 20.2266 79.3828 20.4453 79.3359 20.7031C79.2969 20.9609 79.2656 21.293 79.2422 21.6992C79.5312 21.457 79.832 21.2188 80.1445 20.9844C80.457 20.75 80.7773 20.543 81.1055 20.3633C81.4336 20.1836 81.7656 20.0391 82.1016 19.9297C82.4453 19.8203 82.7891 19.7656 83.1328 19.7656C83.3438 19.7656 83.5273 19.7773 83.6836 19.8008C83.8398 19.8164 83.9805 19.8438 84.1055 19.8828C84.2305 19.9141 84.3438 19.9531 84.4453 20C84.5469 20.0391 84.6445 20.0781 84.7383 20.1172L84.1641 22.3555L83.9648 22.3086C83.8711 21.9648 83.6953 21.6914 83.4375 21.4883C83.1797 21.2773 82.8281 21.1719 82.3828 21.1719C82.1406 21.1719 81.8867 21.2148 81.6211 21.3008C81.3555 21.3867 81.0859 21.5078 80.8125 21.6641C80.5391 21.8125 80.2656 21.9883 79.9922 22.1914C79.7188 22.3867 79.4531 22.5938 79.1953 22.8125C79.1797 23.0391 79.1719 23.2852 79.1719 23.5508C79.1719 23.8164 79.1719 24.0977 79.1719 24.3945V27.418C79.1719 28.082 79.1797 28.6641 79.1953 29.1641C79.2109 29.6562 79.2344 30.082 79.2656 30.4414C79.2969 30.8008 79.332 31.1016 79.3711 31.3438C79.4102 31.5859 79.4531 31.7891 79.5 31.9531V32H76.793V31.9531C76.8398 31.7891 76.8828 31.5859 76.9219 31.3438C76.9688 31.1016 77.0039 30.8008 77.0273 30.4414C77.0586 30.082 77.082 29.6562 77.0977 29.1641C77.1211 28.6641 77.1328 28.082 77.1328 27.418V24.582ZM86.625 24.582C86.625 23.918 86.6133 23.3398 86.5898 22.8477C86.5742 22.3477 86.5508 21.918 86.5195 21.5586C86.4961 21.1992 86.4609 20.8984 86.4141 20.6562C86.375 20.4141 86.332 20.2109 86.2852 20.0469V20H88.9922V20.0469C88.9453 20.2109 88.9023 20.4141 88.8633 20.6562C88.8242 20.8984 88.7891 21.1992 88.7578 21.5586C88.7266 21.918 88.7031 22.3477 88.6875 22.8477C88.6719 23.3398 88.6641 23.918 88.6641 24.582V27.418C88.6641 28.082 88.6719 28.6641 88.6875 29.1641C88.7031 29.6562 88.7266 30.082 88.7578 30.4414C88.7891 30.8008 88.8242 31.1016 88.8633 31.3438C88.9023 31.5859 88.9453 31.7891 88.9922 31.9531V32H86.2852V31.9531C86.332 31.7891 86.375 31.5859 86.4141 31.3438C86.4609 31.1016 86.4961 30.8008 86.5195 30.4414C86.5508 30.082 86.5742 29.6562 86.5898 29.1641C86.6133 28.6641 86.625 28.082 86.625 27.418V24.582ZM86.3789 16.4492C86.3789 16.2773 86.4102 16.1172 86.4727 15.9688C86.543 15.8125 86.6328 15.6797 86.7422 15.5703C86.8516 15.4531 86.9805 15.3633 87.1289 15.3008C87.2852 15.2305 87.4531 15.1953 87.6328 15.1953C87.8125 15.1953 87.9766 15.2305 88.125 15.3008C88.2812 15.3633 88.4141 15.4531 88.5234 15.5703C88.6406 15.6797 88.7305 15.8125 88.793 15.9688C88.8633 16.1172 88.8984 16.2773 88.8984 16.4492C88.8984 16.8086 88.7773 17.1094 88.5352 17.3516C88.293 17.5938 87.9922 17.7148 87.6328 17.7148C87.4531 17.7148 87.2852 17.6836 87.1289 17.6211C86.9805 17.5508 86.8516 17.4609 86.7422 17.3516C86.6328 17.2344 86.543 17.1016 86.4727 16.9531C86.4102 16.7969 86.3789 16.6289 86.3789 16.4492Z" fill="#202B40"/>
</svg>
